<svg width="30" height="30" viewBox="0 0 30 30" fill="none" xmlns="http://www.w3.org/2000/svg">
<g id="Chrome">
<path id="Vector" d="M27.5 15C27.5 21.9025 21.9025 27.5 15 27.5C8.0975 27.5 2.5 21.9025 2.5 15C2.5 8.0975 8.0975 2.5 15 2.5C21.9025 2.5 27.5 8.0975 27.5 15Z" fill="#4CAF50"/>
<path id="Vector_2" d="M15 2.5V15L20 17.5L14.4731 27.5C14.6713 27.5 14.8019 27.5 15 27.5C21.9081 27.5 27.5 21.9081 27.5 15C27.5 8.09187 21.9081 2.5 15 2.5Z" fill="#FFC107"/>
<path id="Vector_3" d="M27.5 15C27.5 21.9025 21.9025 27.5 15 27.5C8.0975 27.5 2.5 21.9025 2.5 15C2.5 8.0975 8.0975 2.5 15 2.5C21.9025 2.5 27.5 8.0975 27.5 15Z" fill="#4CAF50"/>
<path id="Vector_4" d="M15 2.5V15L20 17.5L14.4731 27.5C14.6713 27.5 14.8019 27.5 15 27.5C21.9081 27.5 27.5 21.9081 27.5 15C27.5 8.09187 21.9081 2.5 15 2.5Z" fill="#FFC107"/>
<path id="Vector_5" d="M26.15 9.375H15V17.5L13.125 16.875L4.47502 8.2875H4.46252C6.67502 4.80625 10.5688 2.5 15 2.5C19.875 2.5 24.0938 5.3 26.15 9.375Z" fill="#F44336"/>
<path id="Vector_6" d="M4.47375 8.29001L10.0006 17.5788L13.125 16.875L4.47375 8.29001Z" fill="#DD2C00"/>
<path id="Vector_7" d="M14.4731 27.5L20.0569 17.4631L17.5 15.625L14.4731 27.5Z" fill="#558B2F"/>
<path id="Vector_8" d="M26.1657 9.375H15.0001L14.0132 12.2375L26.1657 9.375Z" fill="#F9A825"/>
<path id="Vector_9" d="M20.625 15C20.625 18.1056 18.1056 20.625 15 20.625C11.8944 20.625 9.375 18.1056 9.375 15C9.375 11.8944 11.8944 9.375 15 9.375C18.1056 9.375 20.625 11.8944 20.625 15Z" fill="white"/>
<path id="Vector_10" d="M19.375 15C19.375 17.4169 17.4169 19.375 15 19.375C12.5831 19.375 10.625 17.4169 10.625 15C10.625 12.5831 12.5831 10.625 15 10.625C17.4169 10.625 19.375 12.5831 19.375 15Z" fill="#2196F3"/>
</g>
</svg>
