<svg width="22" height="22" viewBox="0 0 22 22" fill="none" xmlns="http://www.w3.org/2000/svg">
<rect x="0.5" y="0.5" width="21" height="21" rx="10.5" stroke="#424242"/>
<path d="M11.1325 18C9.63135 18 8.51656 17.7651 7.78808 17.2953C7.0596 16.8255 6.57395 16.1913 6.33113 15.3926C6.11038 14.5783 6 13.6622 6 12.6443V9.47315C6 8.22036 6.14349 7.19463 6.43046 6.39597C6.71744 5.58166 7.22517 4.97875 7.95364 4.58725C8.70419 4.19575 9.7638 4 11.1325 4C12.479 4 13.5055 4.18009 14.2119 4.54027C14.9183 4.90045 15.3929 5.4094 15.6358 6.06711C15.8786 6.72483 16 7.48434 16 8.34564V9.00336H13.7483V8.34564C13.7483 7.54698 13.66 6.92841 13.4834 6.48993C13.3289 6.05145 13.053 5.74608 12.6556 5.57382C12.2804 5.38591 11.7726 5.29195 11.1325 5.29195C10.3819 5.29195 9.80795 5.41723 9.4106 5.66778C9.01325 5.91834 8.74834 6.33333 8.61589 6.91275C8.48344 7.47651 8.41722 8.23602 8.41722 9.19128V12.9966C8.41722 14.3591 8.60486 15.3221 8.98013 15.8859C9.35541 16.434 10.0839 16.7081 11.1656 16.7081C11.9161 16.7081 12.479 16.5906 12.8543 16.3557C13.2296 16.1051 13.4724 15.7371 13.5828 15.2517C13.6932 14.7662 13.7483 14.1633 13.7483 13.443V12.6913H16V13.349C16 14.2573 15.8786 15.0638 15.6358 15.7685C15.415 16.4575 14.9514 17.0056 14.245 17.4128C13.5386 17.8042 12.5011 18 11.1325 18Z" fill="#424242"/>
</svg>
