<svg width="30" height="30" viewBox="0 0 30 30" fill="none" xmlns="http://www.w3.org/2000/svg">
<g id="Internet Explorer">
<path id="Vector" d="M18.3751 5.25C19.0626 4.8125 21.6876 3.1875 23.8751 3.1875C28.0001 3.1875 26.0626 8 26.0626 8L26.1876 8.125C28.5626 2.0625 24.0001 2.5 24.0001 2.5C21.4376 2.5 18.1876 4.625 17.5001 5.125C16.8751 5.0625 16.2501 5 15.5626 5C6.06255 5 4.62505 12.25 4.43755 14.375C4.37505 14.6875 4.37505 14.875 4.37505 14.875C4.37505 14.9375 4.37505 15 4.37505 15C4.37505 14.9375 4.37505 14.875 4.37505 14.8125C8.18755 9.375 13.4376 7.1875 13.4376 7.1875V7.5625C5.62505 12.875 3.75005 20.75 3.31255 22.3125C2.81255 23.9375 3.12505 27.5 6.43755 27.5C9.75005 27.5 12.9376 24.875 12.9376 24.875C12.9376 24.875 13.6876 25 15.6251 25C23.8751 25 26.0626 17.5 26.0626 17.5H18.7501C18.7501 17.5 18.0001 20 15.3751 20C11.7501 20 11.8751 16.25 11.8751 16.25H26.2501C26.5001 12.8125 25.5626 10.4375 24.1876 8.8125C23.0626 7.1875 21.25 5.8125 18.3751 5.25ZM12.5001 24.75C12.5001 24.75 7.62505 27.8125 5.37505 25.6875C4.18755 23.5625 6.12505 20.5625 6.12505 20.5625C6.12505 20.5625 7.62505 23.625 12.5001 24.75ZM11.8751 13.125C11.8751 13.125 11.8126 10 15.3126 10C18.6876 10 18.7501 13.125 18.7501 13.125H11.8751Z" fill="#29B6F6"/>
</g>
</svg>
