<svg width="30" height="30" viewBox="0 0 30 30" fill="none" xmlns="http://www.w3.org/2000/svg">
<g id="firefox-svgrepo-com 1">
<path id="Vector" d="M27.1786 10.0561C26.6077 8.67881 25.4506 7.19193 24.5422 6.72224C25.2816 8.17514 25.7093 9.63244 25.8728 10.7198C25.8728 10.7198 25.8727 10.7274 25.8755 10.7417C24.3896 7.02916 21.8697 5.53186 19.8119 2.27257C19.7075 2.10815 19.6036 1.94373 19.5019 1.76781C19.4444 1.66861 19.3979 1.57872 19.3575 1.49378C19.2722 1.32897 19.2063 1.1548 19.1612 0.974766C19.1616 0.966216 19.1587 0.957835 19.1532 0.951254C19.1478 0.944672 19.1401 0.94036 19.1317 0.939141C19.1236 0.936953 19.1151 0.936953 19.107 0.939141C19.1048 0.940135 19.1028 0.941429 19.101 0.942975C19.0977 0.942975 19.0944 0.946819 19.0912 0.947907L19.0966 0.940782C15.7953 2.87872 14.6753 6.46356 14.5725 8.25735C13.2533 8.34776 11.9918 8.83461 10.9528 9.65438C10.8442 9.56231 10.7307 9.47635 10.6127 9.39675C10.3132 8.34628 10.3006 7.23453 10.576 6.17748C9.22585 6.79403 8.17589 7.76684 7.41248 8.62784H7.40647C6.88531 7.96633 6.92195 5.78452 6.95148 5.32908C6.94546 5.30058 6.56321 5.52803 6.51399 5.56255C6.05412 5.89134 5.62425 6.26035 5.22942 6.66525C4.78013 7.12177 4.36965 7.61509 4.00227 8.14007C3.15705 9.34053 2.55763 10.697 2.23866 12.1311C2.23265 12.1596 2.22717 12.1891 2.22116 12.2182C2.19655 12.3338 2.10742 12.9142 2.09155 13.0403V13.0693C1.97535 13.669 1.90298 14.2764 1.875 14.8867V14.9541C1.875 22.2278 7.75918 28.125 15.0171 28.125C21.5176 28.125 26.9145 23.3952 27.9716 17.1825C27.9935 17.0142 28.0115 16.8443 28.0312 16.6744C28.2926 14.4153 28.0022 12.0412 27.1786 10.0561ZM12.0307 20.3662C12.092 20.3952 12.1499 20.4276 12.2128 20.456L12.2215 20.4615C12.1586 20.4308 12.0941 20.3991 12.0307 20.3662ZM25.8766 10.7477V10.7351V10.7494V10.7477Z" fill="url(#paint0_linear_1_12598)"/>
<path id="Vector_2" d="M27.1788 10.0561C26.6079 8.67882 25.4508 7.19195 24.5424 6.72226C25.2818 8.17516 25.7094 9.63244 25.8729 10.7197V10.7467C27.1133 14.1161 26.4373 17.5426 25.4639 19.6361C23.9578 22.8752 20.312 26.1952 14.6044 26.0336C8.44295 25.8582 3.01102 21.2705 1.9966 15.2664C1.81176 14.3189 1.9966 13.8383 2.08956 13.0693C1.97637 13.6617 1.93316 13.8333 1.87683 14.8867V14.9541C1.87683 22.2279 7.76102 28.125 15.0189 28.125C21.5194 28.125 26.9164 23.3952 27.9734 17.1825C27.9953 17.0142 28.0133 16.8443 28.033 16.6745C28.2928 14.4154 28.0024 12.0412 27.1788 10.0561Z" fill="url(#paint1_radial_1_12598)"/>
<path id="Vector_3" d="M27.1788 10.0561C26.6079 8.67882 25.4508 7.19195 24.5424 6.72226C25.2818 8.17516 25.7094 9.63244 25.8729 10.7197V10.7467C27.1133 14.1161 26.4373 17.5426 25.4639 19.6361C23.9578 22.8752 20.312 26.1952 14.6044 26.0336C8.44295 25.8582 3.01102 21.2705 1.9966 15.2664C1.81176 14.3189 1.9966 13.8383 2.08956 13.0693C1.97637 13.6617 1.93316 13.8333 1.87683 14.8867V14.9541C1.87683 22.2279 7.76102 28.125 15.0189 28.125C21.5194 28.125 26.9164 23.3952 27.9734 17.1825C27.9953 17.0142 28.0133 16.8443 28.033 16.6745C28.2928 14.4154 28.0024 12.0412 27.1788 10.0561Z" fill="url(#paint2_radial_1_12598)"/>
<path id="Vector_4" d="M20.7915 11.6037C20.8204 11.624 20.8461 11.6442 20.8735 11.6646C20.5437 11.0776 20.1327 10.5403 19.6529 10.0686C15.5679 5.97461 18.5822 1.19117 19.0902 0.947829L19.0956 0.940704C15.7943 2.87863 14.6743 6.46348 14.5715 8.25727C14.7246 8.24686 14.8772 8.23371 15.0331 8.23371C17.4966 8.23371 19.6425 9.59175 20.7915 11.6037Z" fill="url(#paint3_radial_1_12598)"/>
<path id="Vector_5" d="M15.0419 12.4218C15.0206 12.7506 13.8656 13.8796 13.4615 13.8796C9.72428 13.8796 9.1178 16.1452 9.1178 16.1452C9.28185 18.0536 10.6085 19.6249 12.2135 20.4562C12.2868 20.4941 12.3606 20.5281 12.4323 20.5621C12.5608 20.6168 12.6899 20.6717 12.8184 20.7204C13.3688 20.9151 13.9452 21.0259 14.5284 21.0493C21.0786 21.3573 22.3485 13.2 17.6208 10.8313C18.8311 10.6203 20.0878 11.1086 20.7894 11.6024C19.641 9.59053 17.4946 8.23242 15.031 8.23242C14.8751 8.23242 14.7226 8.24557 14.5694 8.25599C13.2512 8.34753 11.991 8.83491 10.9531 9.65466C11.1538 9.82509 11.3802 10.052 11.8564 10.5222C12.7501 11.4057 15.037 12.3149 15.0419 12.4218Z" fill="url(#paint4_radial_1_12598)"/>
<path id="Vector_6" d="M15.0419 12.4218C15.0206 12.7506 13.8656 13.8796 13.4615 13.8796C9.72428 13.8796 9.1178 16.1452 9.1178 16.1452C9.28185 18.0536 10.6085 19.6249 12.2135 20.4562C12.2868 20.4941 12.3606 20.5281 12.4323 20.5621C12.5608 20.6168 12.6899 20.6717 12.8184 20.7204C13.3688 20.9151 13.9452 21.0259 14.5284 21.0493C21.0786 21.3573 22.3485 13.2 17.6208 10.8313C18.8311 10.6203 20.0878 11.1086 20.7894 11.6024C19.641 9.59053 17.4946 8.23242 15.031 8.23242C14.8751 8.23242 14.7226 8.24557 14.5694 8.25599C13.2512 8.34753 11.991 8.83491 10.9531 9.65466C11.1538 9.82509 11.3802 10.052 11.8564 10.5222C12.7501 11.4057 15.037 12.3149 15.0419 12.4218Z" fill="url(#paint5_radial_1_12598)"/>
<path id="Vector_7" d="M10.3417 9.21649C10.4483 9.28555 10.5359 9.34365 10.6151 9.39684C10.3157 8.34632 10.3031 7.23457 10.5785 6.17752C9.22829 6.79408 8.17833 7.76688 7.41492 8.62788C7.47671 8.62623 9.38303 8.5917 10.3417 9.21649Z" fill="url(#paint6_radial_1_12598)"/>
<path id="Vector_8" d="M1.99653 15.2662C3.01096 21.2703 8.44289 25.858 14.6087 26.0334C20.3162 26.1951 23.96 22.875 25.4682 19.6359C26.4416 17.5418 27.1175 14.1159 25.8773 10.7465V10.7212C25.8773 10.7245 25.8773 10.7289 25.88 10.7432C26.3459 13.7942 24.7978 16.7498 22.3773 18.7487C22.3749 18.7542 22.3725 18.7599 22.3703 18.7657C17.6536 22.6147 13.1404 21.0877 12.2266 20.4646C12.1632 20.4339 12.0992 20.4022 12.0358 20.3692C9.2856 19.0539 8.14978 16.5411 8.39313 14.3877C6.07172 14.3877 5.27987 12.4246 5.27987 12.4246C5.27987 12.4246 7.36449 10.935 10.1119 12.2306C12.6565 13.4308 15.0462 12.4246 15.0462 12.4246C15.0413 12.3177 12.7543 11.4058 11.8624 10.525C11.3861 10.0548 11.1597 9.8279 10.9589 9.65747C10.8504 9.5654 10.7368 9.47943 10.6188 9.39984C10.5406 9.34508 10.4548 9.29028 10.3454 9.21957C9.38675 8.59479 7.48042 8.62932 7.41753 8.63096H7.41152C6.89036 7.96946 6.927 5.78763 6.95653 5.33221C6.95052 5.30371 6.56826 5.53114 6.51904 5.56567C6.05917 5.89446 5.6293 6.26347 5.23448 6.66837C4.78518 7.12488 4.37471 7.61821 4.00733 8.14319C3.16211 9.34366 2.56269 10.7001 2.24372 12.1342C2.23333 12.1594 1.76576 14.2053 1.99653 15.2662Z" fill="url(#paint7_radial_1_12598)"/>
<path id="Vector_9" d="M19.6532 10.0687C20.133 10.5404 20.5439 11.0777 20.8737 11.6647C20.9422 11.716 21.0078 11.771 21.0706 11.829C24.0499 14.5781 22.4914 18.4699 22.3727 18.7493C24.7931 16.7506 26.3412 13.7949 25.8753 10.7438C24.3895 7.02916 21.8696 5.53186 19.8117 2.27257C19.7073 2.10815 19.6034 1.94373 19.5017 1.76781C19.4443 1.66861 19.3978 1.57872 19.3573 1.49378C19.2721 1.32897 19.2062 1.1548 19.161 0.974766C19.1614 0.966216 19.1586 0.957835 19.1531 0.951254C19.1476 0.944672 19.1399 0.94036 19.1315 0.939141C19.1234 0.936953 19.115 0.936953 19.1069 0.939141C19.1047 0.940135 19.1027 0.941429 19.1008 0.942975C19.0975 0.942975 19.0943 0.946819 19.091 0.947907C18.5825 1.19124 15.5681 5.9747 19.6532 10.0687Z" fill="url(#paint8_radial_1_12598)"/>
<path id="Vector_10" d="M21.0697 11.8262C21.0068 11.7681 20.9411 11.7132 20.8728 11.6617C20.846 11.6415 20.8181 11.6212 20.7907 11.6009C20.0891 11.1077 18.8325 10.6188 17.6223 10.8298C22.3493 13.1985 21.0801 21.3558 14.5298 21.0478C13.9466 21.0244 13.3702 20.9136 12.8197 20.7189C12.6913 20.6707 12.5622 20.6176 12.4337 20.5606C12.3593 20.5266 12.2855 20.4926 12.215 20.4548L12.2237 20.4603C13.1375 21.0851 17.6507 22.6119 22.3673 18.7613C22.3673 18.7613 22.3701 18.7542 22.3745 18.7443C22.4915 18.4698 24.0501 14.578 21.0697 11.8262Z" fill="url(#paint9_radial_1_12598)"/>
<path id="Vector_11" d="M9.11749 16.1451C9.11749 16.1451 9.72394 13.8795 13.4612 13.8795C13.8653 13.8795 15.0203 12.7494 15.0416 12.4217C15.0629 12.0939 12.6518 13.4279 10.1073 12.2276C7.35989 10.932 5.27527 12.4217 5.27527 12.4217C5.27527 12.4217 6.06712 14.3848 8.38853 14.3848C8.14518 16.5381 9.281 19.0488 12.0311 20.3663C12.0924 20.3953 12.1504 20.4276 12.2133 20.4561C10.6082 19.6265 9.28319 18.0535 9.11749 16.1451Z" fill="url(#paint10_radial_1_12598)"/>
<path id="Vector_12" d="M27.1786 10.0561C26.6077 8.67881 25.4506 7.19193 24.5422 6.72224C25.2816 8.17514 25.7093 9.63244 25.8728 10.7198C25.8728 10.7198 25.8727 10.7274 25.8755 10.7417C24.3896 7.02916 21.8697 5.53186 19.8119 2.27257C19.7075 2.10815 19.6036 1.94373 19.5019 1.76781C19.4444 1.66861 19.3979 1.57872 19.3575 1.49378C19.2722 1.32897 19.2063 1.1548 19.1612 0.974766C19.1616 0.966216 19.1587 0.957835 19.1532 0.951254C19.1478 0.944672 19.1401 0.94036 19.1317 0.939141C19.1236 0.936953 19.1151 0.936953 19.107 0.939141C19.1048 0.940135 19.1028 0.941429 19.101 0.942975C19.0977 0.942975 19.0944 0.946819 19.0912 0.947907L19.0966 0.940782C15.7953 2.87872 14.6753 6.46356 14.5725 8.25735C14.7256 8.24694 14.8782 8.23379 15.034 8.23379C17.4976 8.23379 19.6435 9.59184 20.7924 11.6038C20.0908 11.1105 18.8342 10.6217 17.624 10.8327C22.3509 13.2014 21.0818 21.3587 14.5314 21.0506C13.9483 21.0272 13.3718 20.9164 12.8214 20.7218C12.6929 20.6736 12.5639 20.6204 12.4354 20.5634C12.361 20.5295 12.2872 20.4954 12.2167 20.4577L12.2254 20.4631C12.1619 20.4324 12.098 20.4007 12.0345 20.3678C12.0957 20.3968 12.1538 20.4292 12.2167 20.4577C10.6083 19.6263 9.28328 18.0533 9.11758 16.145C9.11758 16.145 9.72403 13.8793 13.4613 13.8793C13.8654 13.8793 15.0203 12.7493 15.0417 12.4215C15.0368 12.3146 12.7498 11.4026 11.8579 10.5219C11.3815 10.0517 11.1551 9.82481 10.9545 9.65438C10.8458 9.56231 10.7323 9.47635 10.6143 9.39675C10.3149 8.34628 10.3023 7.23453 10.5777 6.17748C9.22749 6.79403 8.17753 7.76684 7.41412 8.62784H7.40811C6.88695 7.96633 6.92359 5.78452 6.95312 5.32908C6.9471 5.30058 6.56485 5.52803 6.51563 5.56255C6.05576 5.89134 5.62589 6.26035 5.23106 6.66525C4.78177 7.12177 4.37129 7.61509 4.00391 8.14007C3.15869 9.34053 2.55927 10.697 2.2403 12.1311C2.23429 12.1596 2.22881 12.1891 2.2228 12.2182C2.19819 12.3338 2.08663 12.9224 2.07132 13.0485C2.07132 13.0391 2.07132 13.0583 2.07132 13.0485C1.96893 13.6567 1.90337 14.2705 1.875 14.8867V14.9541C1.875 22.2278 7.75918 28.125 15.0171 28.125C21.5176 28.125 26.9145 23.3952 27.9716 17.1825C27.9935 17.0142 28.0115 16.8443 28.0312 16.6744C28.2926 14.4153 28.0022 12.0412 27.1786 10.0561Z" fill="url(#paint11_linear_1_12598)"/>
</g>
<defs>
<linearGradient id="paint0_linear_1_12598" x1="25.4391" y1="5.14932" x2="3.57555" y2="26.1972" gradientUnits="userSpaceOnUse">
<stop offset="0.05" stop-color="#FFF44F"/>
<stop offset="0.11" stop-color="#FFE847"/>
<stop offset="0.22" stop-color="#FFC830"/>
<stop offset="0.37" stop-color="#FF980E"/>
<stop offset="0.4" stop-color="#FF8B16"/>
<stop offset="0.46" stop-color="#FF672A"/>
<stop offset="0.53" stop-color="#FF3647"/>
<stop offset="0.7" stop-color="#E31587"/>
</linearGradient>
<radialGradient id="paint1_radial_1_12598" cx="0" cy="0" r="1" gradientUnits="userSpaceOnUse" gradientTransform="translate(24.4309 3.95512) scale(27.3981 27.4583)">
<stop offset="0.13" stop-color="#FFBD4F"/>
<stop offset="0.19" stop-color="#FFAC31"/>
<stop offset="0.25" stop-color="#FF9D17"/>
<stop offset="0.28" stop-color="#FF980E"/>
<stop offset="0.4" stop-color="#FF563B"/>
<stop offset="0.47" stop-color="#FF3750"/>
<stop offset="0.71" stop-color="#F5156C"/>
<stop offset="0.78" stop-color="#EB0878"/>
<stop offset="0.86" stop-color="#E50080"/>
</radialGradient>
<radialGradient id="paint2_radial_1_12598" cx="0" cy="0" r="1" gradientUnits="userSpaceOnUse" gradientTransform="translate(14.4196 15.1805) scale(27.3981 27.4583)">
<stop offset="0.3" stop-color="#960E18"/>
<stop offset="0.35" stop-color="#B11927" stop-opacity="0.74"/>
<stop offset="0.43" stop-color="#DB293D" stop-opacity="0.34"/>
<stop offset="0.5" stop-color="#F5334B" stop-opacity="0.09"/>
<stop offset="0.53" stop-color="#FF3750" stop-opacity="0"/>
</radialGradient>
<radialGradient id="paint3_radial_1_12598" cx="0" cy="0" r="1" gradientUnits="userSpaceOnUse" gradientTransform="translate(17.7225 -2.27639) scale(19.8488 19.8923)">
<stop offset="0.13" stop-color="#FFF44F"/>
<stop offset="0.25" stop-color="#FFDC3E"/>
<stop offset="0.51" stop-color="#FF9D12"/>
<stop offset="0.53" stop-color="#FF980E"/>
</radialGradient>
<radialGradient id="paint4_radial_1_12598" cx="0" cy="0" r="1" gradientUnits="userSpaceOnUse" gradientTransform="translate(11.3895 22.3531) scale(13.0453 13.0739)">
<stop offset="0.35" stop-color="#3A8EE6"/>
<stop offset="0.47" stop-color="#5C79F0"/>
<stop offset="0.67" stop-color="#9059FF"/>
<stop offset="1" stop-color="#C139E6"/>
</radialGradient>
<radialGradient id="paint5_radial_1_12598" cx="0" cy="0" r="1" gradientUnits="userSpaceOnUse" gradientTransform="translate(14.813 11.9174) rotate(-13.9265) scale(6.91234 8.13611)">
<stop offset="0.21" stop-color="#9059FF" stop-opacity="0"/>
<stop offset="0.28" stop-color="#8C4FF3" stop-opacity="0.06"/>
<stop offset="0.75" stop-color="#7716A8" stop-opacity="0.45"/>
<stop offset="0.97" stop-color="#6E008B" stop-opacity="0.6"/>
</radialGradient>
<radialGradient id="paint6_radial_1_12598" cx="0" cy="0" r="1" gradientUnits="userSpaceOnUse" gradientTransform="translate(14.0729 2.83163) scale(9.38512 9.40575)">
<stop stop-color="#FFE226"/>
<stop offset="0.12" stop-color="#FFDB27"/>
<stop offset="0.3" stop-color="#FFC82A"/>
<stop offset="0.5" stop-color="#FFA930"/>
<stop offset="0.73" stop-color="#FF7E37"/>
<stop offset="0.79" stop-color="#FF7139"/>
</radialGradient>
<radialGradient id="paint7_radial_1_12598" cx="0" cy="0" r="1" gradientUnits="userSpaceOnUse" gradientTransform="translate(21.4504 -3.13419) scale(40.0415 40.1293)">
<stop offset="0.11" stop-color="#FFF44F"/>
<stop offset="0.46" stop-color="#FF980E"/>
<stop offset="0.62" stop-color="#FF5634"/>
<stop offset="0.72" stop-color="#FF3647"/>
<stop offset="0.9" stop-color="#E31587"/>
</radialGradient>
<radialGradient id="paint8_radial_1_12598" cx="0" cy="0" r="1" gradientUnits="userSpaceOnUse" gradientTransform="translate(17.5797 1.25038) rotate(84.2447) scale(29.2496 19.1759)">
<stop stop-color="#FFF44F"/>
<stop offset="0.06" stop-color="#FFE847"/>
<stop offset="0.17" stop-color="#FFC830"/>
<stop offset="0.3" stop-color="#FF980E"/>
<stop offset="0.36" stop-color="#FF8B16"/>
<stop offset="0.45" stop-color="#FF672A"/>
<stop offset="0.57" stop-color="#FF3647"/>
<stop offset="0.74" stop-color="#E31587"/>
</radialGradient>
<radialGradient id="paint9_radial_1_12598" cx="0" cy="0" r="1" gradientUnits="userSpaceOnUse" gradientTransform="translate(13.8522 6.31493) scale(24.9979 25.0528)">
<stop offset="0.14" stop-color="#FFF44F"/>
<stop offset="0.48" stop-color="#FF980E"/>
<stop offset="0.59" stop-color="#FF5634"/>
<stop offset="0.66" stop-color="#FF3647"/>
<stop offset="0.9" stop-color="#E31587"/>
</radialGradient>
<radialGradient id="paint10_radial_1_12598" cx="0" cy="0" r="1" gradientUnits="userSpaceOnUse" gradientTransform="translate(20.4511 7.78179) scale(27.3604 27.4204)">
<stop offset="0.09" stop-color="#FFF44F"/>
<stop offset="0.23" stop-color="#FFE141"/>
<stop offset="0.51" stop-color="#FFAF1E"/>
<stop offset="0.63" stop-color="#FF980E"/>
</radialGradient>
<linearGradient id="paint11_linear_1_12598" x1="25.1766" y1="5.03642" x2="6.57228" y2="23.6005" gradientUnits="userSpaceOnUse">
<stop offset="0.17" stop-color="#FFF44F" stop-opacity="0.8"/>
<stop offset="0.27" stop-color="#FFF44F" stop-opacity="0.63"/>
<stop offset="0.49" stop-color="#FFF44F" stop-opacity="0.22"/>
<stop offset="0.6" stop-color="#FFF44F" stop-opacity="0"/>
</linearGradient>
</defs>
</svg>
