<svg width="61" height="60" viewBox="0 0 61 60" fill="none" xmlns="http://www.w3.org/2000/svg">
<g id="spinner-3-svgrepo-com 1">
<path id="Vector" d="M50.7799 28.68C50.4199 21.36 45.9799 14.52 39.3799 11.4C32.1799 8.16001 23.4199 9.48001 17.4199 14.52C11.6599 19.32 9.01988 27.12 10.6999 34.44C12.2599 41.64 17.8999 47.52 24.9799 49.44C33.4999 51.84 41.2999 47.76 46.0999 40.8C41.7799 46.56 35.1799 50.4 27.8599 49.08C20.5399 47.76 14.5399 42.24 12.8599 35.04C11.0599 27.36 14.6599 19.32 21.4999 15.36C28.5799 11.28 38.5399 12.84 43.2199 19.8C44.4199 21.48 45.2599 23.52 45.6199 25.56C45.9799 27.24 45.8599 29.04 46.0999 30.72C46.3399 32.28 47.6599 34.32 49.4599 33.24C51.0199 32.28 50.8999 30.24 50.7799 28.68C50.8999 29.52 50.7799 28.2 50.7799 28.68Z" fill="black"/>
</g>
</svg>
