<svg width="30" height="30" viewBox="0 0 30 30" fill="none" xmlns="http://www.w3.org/2000/svg">
<g id="Opera">
<path id="Vector" d="M15 2.5C8.09187 2.5 2.5 8.09187 2.5 15C2.5 21.9081 8.09187 27.5 15 27.5C21.9081 27.5 27.5 21.9081 27.5 15C27.5 8.09187 21.9081 2.5 15 2.5ZM15 24.375C11.7106 24.375 8.75 20.065 8.75 15C8.75 9.935 11.7106 5.625 15 5.625C18.2894 5.625 21.25 9.935 21.25 15C21.25 20.065 18.2894 24.375 15 24.375Z" fill="#FF1744"/>
<path id="Vector_2" d="M22.8525 5.27812C21.5082 4.3575 19.9313 3.75 18.2894 3.75C15.8219 3.75 13.5869 4.9875 11.9357 6.92438C12.8582 6.10625 13.9094 5.625 15 5.625C18.2894 5.625 21.25 9.935 21.25 15C21.25 20.065 18.2894 24.375 15 24.375C13.9094 24.375 12.8582 23.8938 11.9357 23.0756C13.5869 25.0125 15.8219 26.25 18.2894 26.25C19.9307 26.25 21.5082 25.6425 22.8519 24.7225C25.6857 22.4319 27.5 18.9312 27.5 15C27.5 11.0694 25.6857 7.56875 22.8525 5.27812Z" fill="#D50000"/>
</g>
</svg>
