<svg width="30" height="30" viewBox="0 0 30 30" fill="none" xmlns="http://www.w3.org/2000/svg">
<g id="Safari">
<path id="Vector" opacity="0.35" d="M15.6 28.8C22.8902 28.8 28.8 22.8902 28.8 15.6C28.8 8.30983 22.8902 2.39999 15.6 2.39999C8.30986 2.39999 2.40002 8.30983 2.40002 15.6C2.40002 22.8902 8.30986 28.8 15.6 28.8Z" fill="black"/>
<path id="Vector_2" d="M15 28.2C22.2902 28.2 28.2 22.2901 28.2 15C28.2 7.70983 22.2902 1.79999 15 1.79999C7.70989 1.79999 1.80005 7.70983 1.80005 15C1.80005 22.2901 7.70989 28.2 15 28.2Z" fill="#F2F2F2"/>
<path id="Vector_3" d="M15 25.9341C21.0388 25.9341 25.9341 21.0387 25.9341 15C25.9341 8.96125 21.0388 4.06589 15 4.06589C8.96128 4.06589 4.06592 8.96125 4.06592 15C4.06592 21.0387 8.96128 25.9341 15 25.9341Z" fill="#D9EEFF"/>
<path id="Vector_4" d="M15 26.7C8.54855 26.7 3.30005 21.4515 3.30005 15C3.30005 8.54849 8.54855 3.29999 15 3.29999C21.4515 3.29999 26.7 8.54849 26.7 15C26.7 21.4515 21.4515 26.7 15 26.7ZM15 4.19999C9.04475 4.19999 4.20005 9.04469 4.20005 15C4.20005 20.9553 9.04475 25.8 15 25.8C20.9553 25.8 25.8 20.9553 25.8 15C25.8 9.04469 20.9553 4.19999 15 4.19999Z" fill="#40396E"/>
<path id="Vector_5" d="M15 24.6C20.302 24.6 24.6 20.3019 24.6 15C24.6 9.69806 20.302 5.39999 15 5.39999C9.69809 5.39999 5.40002 9.69806 5.40002 15C5.40002 20.3019 9.69809 24.6 15 24.6Z" fill="#70BFFF"/>
<path id="Vector_6" d="M15 8.24999C14.8341 8.24999 14.7 8.11589 14.7 7.94999V6.44999C14.7 6.28409 14.8341 6.14999 15 6.14999C15.1659 6.14999 15.3 6.28409 15.3 6.44999V7.94999C15.3 8.11589 15.1659 8.24999 15 8.24999Z" fill="#F2F2F2"/>
<path id="Vector_7" d="M15 23.85C14.8341 23.85 14.7 23.7159 14.7 23.55V22.05C14.7 21.8841 14.8341 21.75 15 21.75C15.1659 21.75 15.3 21.8841 15.3 22.05V23.55C15.3 23.7159 15.1659 23.85 15 23.85Z" fill="#F2F2F2"/>
<path id="Vector_8" d="M23.55 15.3297C23.55 15.3297 23.5494 15.3297 23.5488 15.3297L22.0488 15.3243C21.8832 15.3237 21.7494 15.189 21.75 15.0231C21.7506 14.8578 21.8847 14.7243 22.05 14.7243C22.05 14.7243 22.0506 14.7243 22.0512 14.7243L23.5512 14.7297C23.7168 14.7303 23.8506 14.865 23.85 15.0309C23.8494 15.1959 23.7153 15.3297 23.55 15.3297Z" fill="#F2F2F2"/>
<path id="Vector_9" d="M7.95003 15.2757C7.95003 15.2757 7.94943 15.2757 7.94883 15.2757L6.44883 15.2703C6.28323 15.2697 6.14943 15.135 6.15003 14.9691C6.15063 14.8038 6.28473 14.6703 6.45003 14.6703C6.45003 14.6703 6.45063 14.6703 6.45123 14.6703L7.95123 14.6757C8.11683 14.6763 8.25063 14.811 8.25003 14.9769C8.24943 15.1422 8.11533 15.2757 7.95003 15.2757Z" fill="#F2F2F2"/>
<path id="Vector_10" d="M21.0246 21.3669C20.9475 21.3669 20.8704 21.3372 20.8116 21.2781L19.755 20.2137C19.6383 20.0961 19.6389 19.9065 19.7568 19.7895C19.8738 19.6728 20.0634 19.6734 20.181 19.7913L21.2376 20.8557C21.3543 20.9733 21.3537 21.1629 21.2358 21.2799C21.1776 21.3378 21.1011 21.3669 21.0246 21.3669Z" fill="#F2F2F2"/>
<path id="Vector_11" d="M10.032 10.2975C9.95487 10.2975 9.87777 10.2678 9.81897 10.2087L8.76237 9.14429C8.64567 9.02669 8.64627 8.83709 8.76417 8.72009C8.88117 8.60339 9.07077 8.60369 9.18837 8.72189L10.245 9.78629C10.3617 9.90389 10.3611 10.0935 10.2432 10.2105C10.185 10.2687 10.1085 10.2975 10.032 10.2975Z" fill="#F2F2F2"/>
<path id="Vector_12" d="M17.6343 8.76059C17.5968 8.76059 17.559 8.75369 17.5221 8.73899C17.3685 8.67719 17.2941 8.50229 17.3559 8.34839L17.9163 6.95699C17.9784 6.80309 18.1536 6.73019 18.3069 6.79079C18.4605 6.85259 18.5349 7.02749 18.4731 7.18139L17.9127 8.57279C17.8656 8.68979 17.7531 8.76059 17.6343 8.76059Z" fill="#F2F2F2"/>
<path id="Vector_13" d="M11.8053 23.2308C11.7678 23.2308 11.73 23.2239 11.6931 23.2092C11.5395 23.1474 11.4651 22.9725 11.5269 22.8186L12.0873 21.4272C12.1494 21.2733 12.3243 21.2001 12.4779 21.261C12.6315 21.3228 12.7059 21.4977 12.6441 21.6516L12.0837 23.043C12.0363 23.1597 11.9238 23.2308 11.8053 23.2308Z" fill="#F2F2F2"/>
<path id="Vector_14" d="M22.9194 18.5223C22.8816 18.5223 22.8432 18.5154 22.8063 18.5001L21.417 17.9346C21.2634 17.8722 21.1896 17.6973 21.2523 17.5437C21.3144 17.3901 21.4902 17.3163 21.6432 17.379L23.0325 17.9445C23.1861 18.0069 23.2599 18.1818 23.1972 18.3354C23.1501 18.4518 23.0379 18.5223 22.9194 18.5223Z" fill="#F2F2F2"/>
<path id="Vector_15" d="M8.46959 12.6432C8.43179 12.6432 8.39339 12.6363 8.35649 12.621L6.96719 12.0555C6.81359 11.9931 6.73979 11.8182 6.80249 11.6646C6.86459 11.511 7.04069 11.4372 7.19339 11.4999L8.58269 12.0654C8.73629 12.1278 8.81009 12.3027 8.74739 12.4563C8.70029 12.5724 8.58809 12.6432 8.46959 12.6432Z" fill="#F2F2F2"/>
<path id="Vector_16" d="M21.4866 12.5388C21.3699 12.5388 21.2592 12.4704 21.2106 12.3564C21.1455 12.204 21.2169 12.0276 21.369 11.9628L22.7493 11.3754C22.9017 11.3103 23.0778 11.3814 23.1429 11.5338C23.208 11.6862 23.1366 11.8626 22.9845 11.9274L21.6042 12.5148C21.5658 12.5313 21.5259 12.5388 21.4866 12.5388Z" fill="#F2F2F2"/>
<path id="Vector_17" d="M7.13311 18.6486C7.01641 18.6486 6.90571 18.5802 6.85711 18.4662C6.79201 18.3138 6.86341 18.1374 7.01551 18.0726L8.39581 17.4852C8.54821 17.4204 8.72431 17.4912 8.78941 17.6436C8.85451 17.796 8.78311 17.9724 8.63101 18.0372L7.25071 18.6246C7.21231 18.6411 7.17241 18.6486 7.13311 18.6486Z" fill="#F2F2F2"/>
<path id="Vector_18" d="M18.3212 23.1786C18.2042 23.1786 18.0929 23.1099 18.0446 22.9953L17.4621 21.6132C17.3979 21.4605 17.4693 21.2844 17.622 21.2199C17.7744 21.1566 17.9507 21.2271 18.0152 21.3798L18.5978 22.7619C18.6621 22.9146 18.5906 23.0907 18.4379 23.1552C18.3998 23.1708 18.3602 23.1786 18.3212 23.1786Z" fill="#F2F2F2"/>
<path id="Vector_19" d="M12.2613 8.80379C12.1443 8.80379 12.033 8.73509 11.9847 8.62049L11.4021 7.23839C11.3379 7.08569 11.4093 6.90959 11.562 6.84509C11.7141 6.78179 11.8908 6.85229 11.9553 7.00499L12.5379 8.38709C12.6021 8.53979 12.5307 8.71589 12.378 8.78039C12.3399 8.79599 12.3003 8.80379 12.2613 8.80379Z" fill="#F2F2F2"/>
<path id="Vector_20" d="M13.3424 7.52461C13.2038 7.52461 13.0793 7.42831 13.049 7.28701L12.9242 6.70051C12.8897 6.53821 12.9929 6.37891 13.1552 6.34441C13.3142 6.30751 13.4765 6.41281 13.511 6.57541L13.6361 7.16221C13.6706 7.32421 13.5674 7.48351 13.4051 7.51801C13.3841 7.52251 13.3631 7.52461 13.3424 7.52461Z" fill="#F2F2F2"/>
<path id="Vector_21" d="M16.782 23.6622C16.6434 23.6622 16.5189 23.5659 16.4889 23.4246L16.3638 22.8378C16.3293 22.6758 16.4325 22.5165 16.5948 22.482C16.7541 22.4457 16.9158 22.5504 16.9509 22.713L17.0757 23.2995C17.1102 23.4618 17.007 23.6211 16.8447 23.6556C16.824 23.6601 16.803 23.6622 16.782 23.6622Z" fill="#F2F2F2"/>
<path id="Vector_22" d="M16.6575 7.52458C16.6368 7.52458 16.6155 7.52248 16.5948 7.51798C16.4325 7.48378 16.3293 7.32418 16.3638 7.16218L16.4889 6.57538C16.5231 6.41278 16.6845 6.30778 16.8447 6.34438C17.007 6.37858 17.1102 6.53818 17.0757 6.70048L16.9509 7.28698C16.9206 7.42828 16.7961 7.52458 16.6575 7.52458Z" fill="#F2F2F2"/>
<path id="Vector_23" d="M13.2179 23.6622C13.1972 23.6622 13.1759 23.6601 13.1552 23.6556C12.9929 23.6214 12.8897 23.4618 12.9242 23.2995L13.049 22.713C13.0838 22.5504 13.2446 22.446 13.4051 22.482C13.5674 22.5162 13.6706 22.6758 13.6361 22.8378L13.511 23.4246C13.481 23.5659 13.3562 23.6622 13.2179 23.6622Z" fill="#F2F2F2"/>
<path id="Vector_24" d="M19.326 8.63041C19.2699 8.63041 19.2135 8.61481 19.1631 8.58211C19.0242 8.49211 18.9843 8.30641 19.0746 8.16721L19.401 7.66351C19.491 7.52461 19.6767 7.48441 19.8159 7.57501C19.9548 7.66501 19.9947 7.85071 19.9044 7.98991L19.578 8.49361C19.5204 8.58181 19.4244 8.63041 19.326 8.63041Z" fill="#F2F2F2"/>
<path id="Vector_25" d="M10.347 22.4733C10.2909 22.4733 10.2345 22.4577 10.1841 22.425C10.0452 22.335 10.0053 22.1493 10.0956 22.0101L10.422 21.5064C10.512 21.3678 10.698 21.327 10.8369 21.4179C10.9758 21.5079 11.0157 21.6936 10.9254 21.8328L10.599 22.3365C10.5417 22.425 10.4454 22.4733 10.347 22.4733Z" fill="#F2F2F2"/>
<path id="Vector_26" d="M21.6699 10.9737C21.5715 10.9737 21.4755 10.9254 21.4179 10.8369C21.3276 10.6977 21.3675 10.512 21.5064 10.422L22.0101 10.0956C22.149 10.005 22.3347 10.0452 22.425 10.1841C22.5153 10.3233 22.4754 10.509 22.3365 10.599L21.8328 10.9254C21.7824 10.9581 21.726 10.9737 21.6699 10.9737Z" fill="#F2F2F2"/>
<path id="Vector_27" d="M7.82697 19.9527C7.72857 19.9527 7.63257 19.9044 7.57497 19.8159C7.48467 19.6767 7.52457 19.491 7.66347 19.401L8.16717 19.0746C8.30607 18.984 8.49207 19.0245 8.58207 19.1631C8.67237 19.3023 8.63247 19.488 8.49357 19.578L7.98987 19.9044C7.93947 19.9371 7.88277 19.9527 7.82697 19.9527Z" fill="#F2F2F2"/>
<path id="Vector_28" d="M22.7808 13.6695C22.6419 13.6695 22.5171 13.5726 22.4874 13.431C22.4535 13.2687 22.5573 13.11 22.7193 13.0758L23.3067 12.9528C23.4678 12.9186 23.6277 13.0224 23.6619 13.1847C23.6961 13.347 23.592 13.5057 23.43 13.5399L22.8426 13.6629C22.8216 13.6677 22.8012 13.6695 22.7808 13.6695Z" fill="#F2F2F2"/>
<path id="Vector_29" d="M6.63124 17.0535C6.49234 17.0535 6.36754 16.9566 6.33784 16.815C6.30394 16.6527 6.40774 16.494 6.56974 16.4598L7.15714 16.3368C7.31854 16.3032 7.47814 16.4064 7.51234 16.5687C7.54654 16.731 7.44244 16.8897 7.28044 16.9239L6.69304 17.0469C6.67234 17.0514 6.65194 17.0535 6.63124 17.0535Z" fill="#F2F2F2"/>
<path id="Vector_30" d="M23.3562 17.1114C23.3352 17.1114 23.3136 17.1093 23.2923 17.1048L22.7058 16.9776C22.5438 16.9425 22.4409 16.7829 22.476 16.6209C22.5111 16.4589 22.6713 16.3557 22.8327 16.3911L23.4192 16.5183C23.5812 16.5534 23.6841 16.713 23.649 16.875C23.6187 17.0157 23.4945 17.1114 23.3562 17.1114Z" fill="#F2F2F2"/>
<path id="Vector_31" d="M7.23094 13.6158C7.20994 13.6158 7.18834 13.6137 7.16704 13.6092L6.58054 13.482C6.41854 13.4469 6.31564 13.2873 6.35074 13.1253C6.38584 12.9633 6.54604 12.8607 6.70744 12.8955L7.29394 13.0227C7.45594 13.0578 7.55884 13.2174 7.52374 13.3794C7.49344 13.5198 7.36894 13.6158 7.23094 13.6158Z" fill="#F2F2F2"/>
<path id="Vector_32" d="M22.1406 20.0025C22.0842 20.0025 22.0266 19.9863 21.9759 19.953L21.4746 19.6227C21.336 19.5315 21.2979 19.3455 21.3891 19.2072C21.4806 19.0689 21.6666 19.0308 21.8046 19.1217L22.3059 19.452C22.4445 19.5432 22.4826 19.7292 22.3914 19.8675C22.3335 19.9551 22.2381 20.0025 22.1406 20.0025Z" fill="#F2F2F2"/>
<g id="Group">
<path id="Vector_33" d="M8.36005 10.9278C8.30365 10.9278 8.24605 10.9116 8.19535 10.8783L7.69405 10.548C7.55545 10.4568 7.51735 10.2708 7.60855 10.1325C7.69975 9.99421 7.88605 9.95581 8.02405 10.047L8.52535 10.3773C8.66395 10.4685 8.70205 10.6545 8.61085 10.7928C8.55325 10.8804 8.45755 10.9278 8.36005 10.9278Z" fill="#F2F2F2"/>
</g>
<g id="Group_2">
<path id="Vector_34" d="M19.6032 22.5054C19.5042 22.5054 19.4076 22.4565 19.35 22.3668L19.0269 21.861C18.9378 21.7215 18.9786 21.5361 19.1184 21.4467C19.257 21.3576 19.4433 21.3984 19.5327 21.5382L19.8558 22.044C19.9449 22.1835 19.9041 22.3689 19.7643 22.4583C19.7145 22.4901 19.6584 22.5054 19.6032 22.5054Z" fill="#F2F2F2"/>
</g>
<g id="Group_3">
<path id="Vector_35" d="M10.7205 8.6004C10.6215 8.6004 10.5249 8.5515 10.4673 8.4618L10.1442 7.956C10.0551 7.8165 10.0959 7.6311 10.2357 7.5417C10.3749 7.4526 10.5603 7.4934 10.65 7.6332L10.9731 8.139C11.0622 8.2785 11.0214 8.4639 10.8816 8.5533C10.8318 8.5851 10.776 8.6004 10.7205 8.6004Z" fill="#F2F2F2"/>
</g>
<g id="Group_4">
<path id="Vector_36" d="M16.1182 16.0332L13.882 13.8561L21.3979 8.49301L16.1182 16.0332Z" fill="#FF7575"/>
</g>
<g id="Group_5">
<path id="Vector_37" d="M16.1181 16.0332L13.8819 13.8561L8.60217 21.396L16.1181 16.0332Z" fill="#D9EEFF"/>
</g>
<g id="Group_6" opacity="0.35">
<path id="Vector_38" d="M8.60217 21.396L16.1181 16.0332L21.3978 8.49301L8.60217 21.396Z" fill="#40396E"/>
</g>
</g>
</svg>
